<?xml version="1.0" encoding="utf-8"?>
<!-- Generator: Adobe Illustrator 27.5.0, SVG Export Plug-In . SVG Version: 6.00 Build 0)  -->
<svg version="1.1" id="Layer_1" xmlns="http://www.w3.org/2000/svg" xmlns:xlink="http://www.w3.org/1999/xlink" x="0px" y="0px"
	 viewBox="0 0 70 70" style="enable-background:new 0 0 70 70;" xml:space="preserve">
<style type="text/css">
	.st0{display:none;}
	.st1{fill:#333333;}
</style>
<rect x="10" y="10" class="st0" width="50" height="50"/>
<g>
	<g>
		<path class="st1" d="M35,45.3c-5.7,0-10.3-4.6-10.3-10.3c0-5.7,4.6-10.3,10.3-10.3c5.7,0,10.3,4.6,10.3,10.3
			C45.3,40.7,40.7,45.3,35,45.3z M35,27.7c-4,0-7.3,3.3-7.3,7.3c0,4,3.3,7.3,7.3,7.3c4,0,7.3-3.3,7.3-7.3C42.3,31,39,27.7,35,27.7z"
			/>
	</g>
	<g>
		<path class="st1" d="M46.9,13C52.5,13,57,17.5,57,23.1v23.8C57,52.5,52.5,57,46.9,57H23.1C17.5,57,13,52.5,13,46.9V23.1
			C13,17.5,17.5,13,23.1,13H46.9 M46.9,10H23.1C15.9,10,10,15.9,10,23.1v23.8C10,54.1,15.9,60,23.1,60h23.8C54.1,60,60,54.1,60,46.9
			V23.1C60,15.9,54.1,10,46.9,10L46.9,10z"/>
	</g>
	<g>
		<g>
			<circle class="st1" cx="49.5" cy="20.5" r="3.4"/>
		</g>
	</g>
</g>
</svg>
