<?xml version="1.0" encoding="utf-8"?>
<!-- Generator: Adobe Illustrator 27.5.0, SVG Export Plug-In . SVG Version: 6.00 Build 0)  -->
<svg version="1.1" id="Layer_1" xmlns="http://www.w3.org/2000/svg" xmlns:xlink="http://www.w3.org/1999/xlink" x="0px" y="0px"
	 viewBox="0 0 283.5 283.5" style="enable-background:new 0 0 283.5 283.5;" xml:space="preserve">
<style type="text/css">
	.st0{fill:#538ECB;}
</style>
<g>
	<path class="st0" d="M70.2,80c9.2-6.9,17.6-12.5,22.5-15.2c-1.8,4.3-2.7,10-0.7,13.9c2.5,5.1,9.5,4.2,12.9,0.9
		c3.9-3.5,6.2-10.3,6.2-14.8c6.1,0.9,14,0.6,20.3-0.5c-2.2,6.6-1.4,13.4,6.9,15.4c11.1,2.4,25.9-5.6,34.6-13.2
		c-0.1,0.2-0.1,0.5-0.2,0.7c-0.9,3.7-0.9,11.4,3.5,13.2c5.5,2.1,10-2.5,13.8-8.2c2.6-3.8,5.3-8,7.2-10.7c1-1.6,1.6-2.3,1,0.3
		c-1,5-3.3,16.2-5.8,24.6c-8.9,11.2-26.8,36.1-29.3,49.9c-1.9,10.3,5.8,10.5,11,5.4c12.8-12.1,20.3-36.7,24.1-56.5
		c9.3-9.5,24.1-19.4,34.9-21.9c1.9-0.4,3.5-4.7-1.6-2.8c-10.1,3.4-22.9,10.9-32.3,19.3c1.7-9.5,2.4-17.5,2.4-21.9
		c0-4.3-2.9-2.8-3.9-1.4c-3.3,5.4-11.4,14.8-15.8,18.5c-1.7,1.6-4.2,2.5-3.5-0.9c0.4-7.7,6.8-16.8,7.8-20.3c0.9-4.6-3.6-6.9-6.5-3.3
		c-1.6,1.8-3.6,5.6-5.1,10.1c0,0,0,0,0,0c-1.8,2.4-22.4,19.7-32.1,15.6c-6.3-2.5-4.1-10.9-2.1-15.6c7.2,0.2,14.3-3.4,13.6-7.5
		c-0.2-1.8-1.7-3.4-4.5-4c-6-1.3-11.7,4.1-14.6,8.3c-0.7,1-1.4,2.1-2,3.3c-6.4,1.6-15.9,2.3-22.5,1.2c-2.2-9.5-11.7-0.3-2.1,2.8
		c-0.2,2.4-2.4,9-5.2,11.8c-2.2,2.2-3.9,1.5-4.2-1.3c-0.3-6.8,3.9-24.4,13.3-19.6c2.8,2,6.4-0.8,3.6-2.7c-8.3-2.4-16.2,1.5-20.8,7.9
		c-6.9,3.2-16.7,9.4-26.9,16.9c-2.3-2.2-5.7-3.9-10.7-5c19.6-10.1,16.6-29.8,0.4-24.1c-7.2,2.5-11.8,7.6-16.8,13.6
		c-2.5,3,1.3,3.2,4.2,0.3c2.7-2.8,6.6-8.2,10.8-10.5c2.2-1.2,4.8-1.7,7-0.5c6.2,3.8-15.3,21.1-16.2,21.5c-2.2,1.8-0.6,6.4,4.6,4.5
		c6-0.2,12.1-0.9,15.1,1.4C52.2,89.3,7,123.8,15,136.1c2.5,4.2,10.3,4.4,20.8-2.5C52.2,122.9,78.2,94.3,70.2,80z M176,125.9
		c-7.2,11.4-10.6,11.5-4.1-1.3c4.7-9.1,11.4-19.9,17.3-28.3C185.6,106.9,181.1,117.8,176,125.9z M147.6,52c0.9,2-2.5,6.1-5.7,5.7
		C145.3,51.4,147,50.9,147.6,52z M32.5,126.7c-6.4,4.4-10.2,5.4-11.4,3.9c-5-6.2,23.5-31.5,47.1-49.1c0.3,1.7,0,3.9-0.9,6.6
		C62.6,101.4,40.3,121.4,32.5,126.7z"/>
	<path class="st0" d="M139.4,137.8c-1.3,4.3,3.9,5.1,5.8,2C150.3,129,140.6,132.4,139.4,137.8z"/>
	<path class="st0" d="M266,151.7c-10.1,3.4-22.9,10.9-32.3,19.3c1.7-9.5,2.4-17.5,2.4-21.9c0-4.3-2.9-2.8-3.9-1.4
		c-3.3,5.4-11.4,14.8-15.8,18.5c-1.7,1.6-4.2,2.5-3.5-0.9c0.4-7.7,6.8-16.8,7.8-20.3c0.9-4.6-3.6-6.9-6.5-3.3
		c-1.6,1.8-3.6,5.6-5.1,10.1c-6.4,1.7-15.9,2.3-22.6,1.3c-2.2-9.5-11.7-0.3-2.1,2.8c-0.2,2.4-2.4,9-5.2,11.8
		c-2.2,2.2-3.9,1.5-4.2-1.3c-0.3-6.8,3.9-24.4,13.3-19.6c2.8,2,6.4-0.8,3.6-2.7c-8.3-2.4-16.2,1.5-20.8,7.8
		c-10,3.3-22.6,10.8-32.1,19.2c1.7-9.5,3.2-17.6,3.2-22c-0.9-6.2-6.8-0.9-3.9,2.2c-0.6,3.2-3.2,16.7-6.2,26.4
		c-3.7,4.7-9,11.8-14.1,19.4c-0.2-0.5-0.6-0.9-1-1.4c-8.8-9.7,0.1-33.1,4.2-43.2c5-13.5,22.2-40,14-50.2
		c-15.1-19.3-45.8,20.7-64.4,50.2c-9.3,14.6-18.4,28.9-23.7,44.3c3.4-38.3,39.9-108.8,40.3-110.4c5.4-8.8-3.5-11.4-6.9-4.4
		c-13.6,28.1-28.9,72.6-35.3,103.5c-3.2,15.4-3.9,27.4-1.4,32.5c3.3,7.3,9.5,3.8,6.3-1.7c-8.5-16.4,14.9-48.2,23.4-60.7
		c18.4-27,46.2-62.7,55-47.9c6,10.5-7.3,34.6-10.8,43.6c-4.7,12.1-13.2,35-7.2,46.6c1.1,2.6,2.6,3.9,3.9,4.3
		c-5.7,9.2-10.6,18.6-11.9,25.3c-1.9,10.3,5.8,10.5,11,5.4c12.9-12.2,20.5-36.8,24.3-56.7c8.2-8.4,20.6-16.9,30.7-20.6
		c-1.9,4.4-3,10.3-0.9,14.3c2.5,5.1,9.5,4.2,12.9,0.9c3.9-3.5,6.2-10.3,6.2-14.8c6.3,0.9,14.5,0.5,20.9-0.7c-0.3,1-0.5,2-0.7,2.9
		c-0.9,3.7-0.9,11.4,3.5,13.2c5.5,2.1,10-2.5,13.8-8.2c2.6-3.8,5.3-8,7.2-10.7c1-1.6,1.6-2.3,1,0.3c-1,5-3.3,16.2-5.8,24.6
		c-8.9,11.2-26.8,36.1-29.3,49.9c-1.9,10.3,5.8,10.5,11,5.4c12.8-12.1,20.3-36.7,24.1-56.5c9.3-9.5,24.1-19.4,34.9-21.9
		C269.5,154,271.1,149.8,266,151.7z M115.7,217.1c-7.2,11.4-10.6,11.5-4.1-1.3c4.7-9.1,11.4-19.9,17.3-28.3
		C125.3,198.1,120.8,209,115.7,217.1z M210.5,217.1c-7.2,11.4-10.6,11.5-4.1-1.3c4.7-9.1,11.4-19.9,17.3-28.3
		C220,198.1,215.5,209,210.5,217.1z"/>
</g>
</svg>
