<?xml version="1.0" encoding="utf-8"?>
<!-- Generator: Adobe Illustrator 27.5.0, SVG Export Plug-In . SVG Version: 6.00 Build 0)  -->
<svg version="1.1" id="Layer_1" xmlns="http://www.w3.org/2000/svg" xmlns:xlink="http://www.w3.org/1999/xlink" x="0px" y="0px"
	 viewBox="0 0 70 70" style="enable-background:new 0 0 70 70;" xml:space="preserve">
<style type="text/css">
	.st0{display:none;}
	.st1{display:inline;}
	.st2{fill:#333333;}
</style>
<rect x="10" y="10" class="st0" width="50" height="50"/>
<g class="st0">
	<g class="st1">
		<path class="st2" d="M35,45.3c-5.7,0-10.3-4.6-10.3-10.3c0-5.7,4.6-10.3,10.3-10.3c5.7,0,10.3,4.6,10.3,10.3
			C45.3,40.7,40.7,45.3,35,45.3z M35,27.7c-4,0-7.3,3.3-7.3,7.3c0,4,3.3,7.3,7.3,7.3c4,0,7.3-3.3,7.3-7.3C42.3,31,39,27.7,35,27.7z"
			/>
	</g>
	<g class="st1">
		<path class="st2" d="M46.9,13C52.5,13,57,17.5,57,23.1v23.8C57,52.5,52.5,57,46.9,57H23.1C17.5,57,13,52.5,13,46.9V23.1
			C13,17.5,17.5,13,23.1,13H46.9 M46.9,10H23.1C15.9,10,10,15.9,10,23.1v23.8C10,54.1,15.9,60,23.1,60h23.8C54.1,60,60,54.1,60,46.9
			V23.1C60,15.9,54.1,10,46.9,10L46.9,10z"/>
	</g>
	<g class="st1">
		<g>
			<circle class="st2" cx="49.5" cy="20.5" r="3.4"/>
		</g>
	</g>
</g>
<path class="st2" d="M45.4,10H24.6C16.5,10,10,16.5,10,24.6v20.8C10,53.5,16.5,60,24.6,60h20.8C53.5,60,60,53.5,60,45.4V24.6
	C60,16.5,53.5,10,45.4,10z M39.3,47.5c-2.5,2.8-6.4,4.1-10.3,3.2c-0.3-0.1-0.6-0.2-0.9-0.3c1.6-0.6,3-1.5,4.1-2.7
	c-10.8-0.9-19.2-6.9-19.2-14.2c0-7.9,9.8-14.3,21.9-14.3s21.9,6.4,21.9,14.3C56.9,40.4,49.4,46.2,39.3,47.5z"/>
</svg>
